<?xml version="1.0" encoding="UTF-8"?>
<svg width="25px" height="24px" viewBox="0 0 25 24" version="1.1" xmlns="http://www.w3.org/2000/svg" xmlns:xlink="http://www.w3.org/1999/xlink">
    <!-- Generator: Sketch 53.2 (72643) - https://sketchapp.com -->
    <title>icons/navbar/3_buy_gray</title>
    <desc>Created with Sketch.</desc>
    <defs>
        <path d="M21.5924464,18.0602827 C21.6437622,18.0602827 21.6947368,18.0579435 21.7455166,18.054386 C21.3242203,18.7041423 20.8335283,19.312037 20.279386,19.8661793 C18.1949318,21.9506335 15.423538,23.0985867 12.4756823,23.0985867 C9.52782651,23.0985867 6.75643275,21.9506335 4.67197856,19.8661793 C2.7581384,17.9522904 1.6337232,15.4591131 1.46247563,12.7821637 L0.719785575,12.7821637 C0.45248538,12.7821637 0.207163743,12.6339181 0.082748538,12.3974172 C-0.0416666667,12.1609162 -0.0247563353,11.8748051 0.12665692,11.6545809 L2.76574074,7.81588694 C2.82446394,7.73045809 2.9,7.66003899 2.98615984,7.60789474 C3.04770955,7.57061404 3.11476608,7.54269006 3.18503899,7.52519493 C3.21315789,7.51822612 3.24176413,7.5128655 3.27080897,7.50930799 C3.2998538,7.50575049 3.32923977,7.50394737 3.3588694,7.50394737 C3.59590643,7.50394737 3.81773879,7.62066277 3.95194932,7.81593567 L5.54181287,10.1285088 L6.59103314,11.6546296 C6.74244639,11.8748538 6.75935673,12.1609162 6.63494152,12.3974659 C6.51052632,12.6340643 6.26520468,12.7821637 5.99795322,12.7821637 L5.31388889,12.7821637 C5.67626706,16.4140838 8.74995127,19.2598928 12.4756823,19.2598928 C15.1457115,19.2598928 17.5118421,17.8191033 18.7565302,15.5873782 L19.8131579,17.1243177 C20.2160331,17.7103801 20.8812378,18.0602827 21.5924464,18.0602827 Z M24.8685673,11.7273392 C24.9929825,11.9638402 24.9761209,12.2499025 24.8246589,12.4702729 L23.1385478,14.922807 L22.1856238,16.3089181 C22.0513645,16.504191 21.8294834,16.6209064 21.5924951,16.6209064 C21.4147173,16.6209064 21.2454678,16.5552632 21.1153509,16.4400585 C21.0719786,16.4016569 21.0329435,16.3577485 20.9993665,16.3089181 L19.4095029,13.996345 L18.3602827,12.4702242 C18.2088694,12.25 18.1919591,11.9639376 18.3163743,11.7273879 C18.4407895,11.4907895 18.6861111,11.3426901 18.9533626,11.3426901 L19.6374269,11.3426901 C19.2750487,7.71076998 16.2013645,4.86496101 12.4756335,4.86496101 C9.80560429,4.86496101 7.43947368,6.30570175 6.19478558,8.5374269 L5.13815789,7.00048733 C4.73528265,6.41442495 4.07012671,6.06452242 3.3588694,6.06452242 C3.30755361,6.06452242 3.25657895,6.0668616 3.20584795,6.07046784 C3.62714425,5.4207115 4.11783626,4.81281676 4.67197856,4.25867446 C6.75638402,2.17422027 9.52787524,1.02626706 12.4756823,1.02626706 C15.4234893,1.02626706 18.1949318,2.17422027 20.2793372,4.25862573 C22.1931774,6.17251462 23.3175926,8.66569201 23.4888402,11.3426413 L24.2315302,11.3426413 C24.4988304,11.3426413 24.7441033,11.4907895 24.8685673,11.7273392 Z" id="path-1"></path>
    </defs>
    <g id="icons/navbar/3_buy_gray" stroke="none" stroke-width="1" fill="none" fill-rule="evenodd">
        <g>
            <rect id="Rectangle" x="0" y="0" width="24" height="24"></rect>
            <mask id="mask-2" fill="white">
                <use xlink:href="#path-1"></use>
            </mask>
            <use id="Combined-Shape" fill="#666666" fill-rule="nonzero" xlink:href="#path-1"></use>
            <g id="swatches/global/gray-3" mask="url(#mask-2)" fill="#666666">
                <rect id="Rectangle" x="0" y="0" width="24" height="24"></rect>
            </g>
        </g>
    </g>
</svg>