<?xml version="1.0" encoding="UTF-8"?>
<svg width="25px" height="24px" viewBox="0 0 25 24" version="1.1" xmlns="http://www.w3.org/2000/svg" xmlns:xlink="http://www.w3.org/1999/xlink">
    <!-- Generator: Sketch 53.2 (72643) - https://sketchapp.com -->
    <title>icons/navbar/3_trades_gray</title>
    <desc>Created with Sketch.</desc>
    <defs>
        <path d="M20,14 L24,14 L24,23 L20,23 L20,14 Z M1,19.4 L5,19.4 L5,23 L1,23 L1,19.4 Z M7,18 L11,18 L11,22 L7,22 L7,18 Z M14,15.6 L18,15.6 L18,22 L14,22 L14,15.6 Z" id="path-1"></path>
    </defs>
    <g id="icons/navbar/3_trades_gray" stroke="none" stroke-width="1" fill="none" fill-rule="evenodd">
        <g id="icons/navbar/">
            <rect id="Rectangle" x="0" y="0" width="24" height="24"></rect>
            <path d="M20,1 L24,1 L24,12 L20,12 L20,1 Z M1,8.4 L5,8.4 L5,12 L1,12 L1,8.4 Z M7,6 L11,6 L11,11 L7,11 L7,6 Z M14,3.6 L18,3.6 L18,11 L14,11 L14,3.6 Z" id="Combined-Shape" fill="#666666" fill-rule="nonzero"></path>
            <mask id="mask-2" fill="white">
                <use xlink:href="#path-1"></use>
            </mask>
            <use id="Combined-Shape" fill="#666666" fill-rule="nonzero" transform="translate(12.500000, 18.500000) rotate(-180.000000) translate(-12.500000, -18.500000) " xlink:href="#path-1"></use>
        </g>
    </g>
</svg>