<?xml version="1.0" encoding="UTF-8"?>
<svg width="24px" height="24px" viewBox="0 0 24 24" version="1.1" xmlns="http://www.w3.org/2000/svg" xmlns:xlink="http://www.w3.org/1999/xlink">
    <!-- Generator: Sketch 53.2 (72643) - https://sketchapp.com -->
    <title>icons/navbar/4_assets_gray</title>
    <desc>Created with Sketch.</desc>
    <defs>
        <path d="M22.3554687,13.9765625 C22.7114219,13.9765625 23,14.2650117 23,14.6210938 L23,17.1992188 C23,17.5553008 22.7114219,17.84375 22.3554687,17.84375 L18.4882812,17.84375 C15.9321992,17.84375 15.9342187,13.9765625 18.4882812,13.9765625 L22.3554687,13.9765625 Z M18.4882813,16.5546875 C18.8442344,16.5546875 19.1328125,16.2661094 19.1328125,15.9101562 C19.1328125,15.5542031 18.8442344,15.265625 18.4882813,15.265625 C18.1323281,15.265625 17.84375,15.5542031 17.84375,15.9101562 C17.84375,16.2661094 18.1323281,16.5546875 18.4882813,16.5546875 Z M2.26710547,5.23194922 C2.6493125,5.00142188 3.09739062,4.8671875 3.578125,4.8671875 L3.578125,7.4453125 C3.09670312,7.4453125 2.64815234,7.31069141 2.26555859,7.07960547 C1.57234375,6.66083203 1.57079687,5.65196875 2.26710547,5.23194922 Z M6.80078125,1 L7.4453125,1 L7.4453125,7.4453125 L4.8671875,7.4453125 L4.8671875,2.93359375 C4.8671875,1.86362891 5.73081641,1 6.80078125,1 Z M14.6210938,1 C15.6910586,1 16.5546875,1.86362891 16.5546875,2.93359375 L16.5546875,7.4453125 L10.0234375,7.4453125 L10.0234375,1 L14.6210938,1 Z M17.84375,4.93164062 C19.1069883,5.18945312 20.0996094,6.18207422 20.3574219,7.4453125 L17.84375,7.4453125 L17.84375,4.93164062 Z M18.4882812,12.6875 C14.2286172,12.6875 14.2309805,19.1328125 18.4882812,19.1328125 L21.7109375,19.1328125 L21.7109375,19.7773438 C21.7109375,21.5542305 20.265168,23 18.4882812,23 L4.22265625,23 C2.44576953,23 1,21.5542305 1,19.7773438 L1,7.7285625 C1.68573828,8.34696875 2.58408594,8.734375 3.578125,8.734375 L20.421875,8.734375 L20.421875,9.37890625 C20.421875,9.38393359 20.419125,9.38805859 20.4190391,9.393 C21.1986641,9.98175781 21.7109375,10.9070898 21.7109375,11.9570313 L21.7109375,12.6875 L18.4882812,12.6875 Z M11.9570312,19.1328125 C13.6113711,19.1328125 14.5207188,17.1665195 13.3877187,15.9101563 C14.5207188,14.653793 13.6113711,12.6875 11.9570312,12.6875 L11.3125,12.6875 L11.3125,12.0429688 C11.3125,11.1898672 10.0234375,11.1933477 10.0234375,12.0429688 L10.0234375,12.6875 L8.08984375,12.6875 C7.23674219,12.6875 7.24022266,13.9765625 8.08984375,13.9765625 L8.734375,13.9765625 L8.734375,17.84375 L8.08984375,17.84375 C7.23674219,17.84375 7.24022266,19.1328125 8.08984375,19.1328125 L10.0234375,19.1328125 L10.0234375,19.7773438 C10.0234375,20.6304453 11.3125,20.6269648 11.3125,19.7773438 L11.3125,19.1328125 L11.9570312,19.1328125 Z M11.9570313,16.5546875 C12.8090156,16.5546875 12.8090156,17.84375 11.9570313,17.84375 L10.0234375,17.84375 L10.0234375,16.5546875 L11.9570313,16.5546875 Z M11.9570313,13.9765625 C12.8090156,13.9765625 12.8090156,15.265625 11.9570313,15.265625 L10.0234375,15.265625 L10.0234375,13.9765625 L11.9570313,13.9765625 Z" id="path-1"></path>
    </defs>
    <g id="icons/navbar/4_assets_gray" stroke="none" stroke-width="1" fill="none" fill-rule="evenodd">
        <g>
            <rect id="Rectangle" x="0" y="0" width="24" height="24"></rect>
            <mask id="mask-2" fill="white">
                <use xlink:href="#path-1"></use>
            </mask>
            <use id="Combined-Shape" fill="#666666" fill-rule="nonzero" xlink:href="#path-1"></use>
            <g id="swatches/global/gray-3" mask="url(#mask-2)" fill="#666666">
                <rect id="Rectangle" x="0" y="0" width="24" height="24"></rect>
            </g>
        </g>
    </g>
</svg>