<?xml version="1.0" encoding="UTF-8"?>
<svg width="24px" height="24px" viewBox="0 0 24 24" version="1.1" xmlns="http://www.w3.org/2000/svg" xmlns:xlink="http://www.w3.org/1999/xlink">
    <!-- Generator: Sketch 53.2 (72643) - https://sketchapp.com -->
    <title>icons/navbar/5_profile_gray</title>
    <desc>Created with Sketch.</desc>
    <defs>
        <path d="M23,23 C23,23 23,21.4875 22.8739583,20.696875 C22.7708333,20.0723958 21.9057292,19.2473958 18.2276042,17.8953125 C14.6067708,16.5661458 14.8302083,17.2135417 14.8302083,14.7671875 C14.8302083,13.1802083 15.6380208,14.1026042 16.1536458,11.0890625 C16.3541667,9.903125 16.5145833,10.69375 16.95,8.79166667 C17.1791667,7.79479167 16.7953125,7.7203125 16.8411458,7.24479167 C16.8869792,6.76927083 16.9328125,6.3453125 17.01875,5.37135417 C17.121875,4.16822917 16.0046875,1 12,1 C7.9953125,1 6.878125,4.16822917 6.98697917,5.37708333 C7.07291667,6.3453125 7.11875,6.775 7.16458333,7.25052083 C7.21041667,7.72604167 6.8265625,7.80052083 7.05572917,8.79739583 C7.49114583,10.69375 7.6515625,9.903125 7.85208333,11.0947917 C8.36770833,14.1083333 9.17552083,13.1859375 9.17552083,14.7729167 C9.17552083,17.225 9.39895833,16.5776042 5.778125,17.9010417 C2.1,19.2473958 1.22916667,20.078125 1.13177083,20.7026042 C1,21.4875 1,23 1,23 L12,23 L23,23 Z" id="path-1"></path>
    </defs>
    <g id="icons/navbar/5_profile_gray" stroke="none" stroke-width="1" fill="none" fill-rule="evenodd">
        <g>
            <rect id="Rectangle" x="0" y="0" width="24" height="24"></rect>
            <mask id="mask-2" fill="white">
                <use xlink:href="#path-1"></use>
            </mask>
            <use id="Shape" fill="#666666" fill-rule="nonzero" xlink:href="#path-1"></use>
            <g id="swatches/global/gray-3" mask="url(#mask-2)" fill="#666666">
                <rect id="Rectangle" x="0" y="0" width="24" height="24"></rect>
            </g>
        </g>
    </g>
</svg>