<?xml version="1.0" encoding="UTF-8"?>
<svg width="56px" height="56px" viewBox="0 0 56 56" version="1.1" xmlns="http://www.w3.org/2000/svg" xmlns:xlink="http://www.w3.org/1999/xlink">
    <!-- Generator: Sketch 53.2 (72643) - https://sketchapp.com -->
    <title>illustration/ReferralsBGWhite</title>
    <desc>Created with Sketch.</desc>
    <defs>
        <circle id="path-1" cx="28" cy="28" r="28"></circle>
    </defs>
    <g id="Tokocrypto" stroke="none" stroke-width="1" fill="none" fill-rule="evenodd">
        <g id="7.4-ReferralsContent-tab2" transform="translate(-22.000000, -101.000000)">
            <g id="Group" transform="translate(0.000000, 80.000000)">
                <g id="illustration/ReferralsBGWhite" transform="translate(22.000000, 21.000000)">
                    <mask id="mask-2" fill="white">
                        <use xlink:href="#path-1"></use>
                    </mask>
                    <use id="Oval-6" fill="#F7F7F7" xlink:href="#path-1"></use>
                    <g id="gift-(1)" mask="url(#mask-2)" fill-rule="nonzero">
                        <g transform="translate(10.000000, 10.000000)">
                            <path d="M27.6432188,3.10202271 C26.5709531,1.09002954 25.286625,0.0703449707 23.8254609,0.0703449707 C22.1435156,0.0703449707 20.3967422,1.44944507 18.6318281,4.17130859 C18.4060547,4.51971729 18.1945547,4.86805542 17.9995781,5.20432837 C17.8046016,4.86805542 17.5931016,4.51971729 17.3668359,4.17130859 C15.6029766,1.44944507 13.8556406,0.0703449707 12.1736953,0.0703449707 C10.7126016,0.0703449707 9.42771094,1.09002954 8.35600781,3.10202271 C7.55465625,4.60791309 7.84357031,5.68940527 8.22698437,6.33104736 C8.91794531,7.4874707 10.4626406,8.26690991 12.9493125,8.71226343 C14.8586484,9.05509814 16.8790781,9.10582837 17.913375,9.10582837 L17.9139375,9.10582837 C17.9430469,9.10582837 17.9715937,9.10582837 17.9996484,9.10582837 C18.0281953,9.10582837 18.0567422,9.10582837 18.0859219,9.10582837 C19.1202891,9.10582837 21.1406484,9.05509814 23.0500547,8.71226343 C25.5361641,8.26690991 27.0808594,7.4874707 27.7730156,6.33104736 C28.1551641,5.68940527 28.4452031,4.60791309 27.6432188,3.10202271 Z" id="Shape" fill="#FF1414"></path>
                            <path d="M33.7492969,14.611363 C33.7492969,13.7801353 33.0769688,13.106531 32.2485469,13.106531 L3.75011719,13.106531 C2.92176563,13.106531 2.25,13.7801353 2.25,14.611363 L2.25,32.4319949 C2.25,33.2632227 2.92176563,33.9367563 3.75011719,33.9367563 L32.2486172,33.9367563 C33.0769688,33.9367563 33.7493672,33.2632227 33.7493672,32.4319949 L33.7493672,14.611363 L33.7492969,14.611363 Z" id="Shape" fill="#8CC153"></path>
                            <path d="M35.9991562,15.8758086 C35.9991562,16.7070364 35.3268281,17.3806406 34.4984766,17.3806406 L1.5001875,17.3806406 C0.671835937,17.3805701 0,16.7069658 0,15.875738 L0,8.34960229 C0,7.51837451 0.671835937,6.84364136 1.5001875,6.84364136 L34.4985469,6.84364136 C35.3268984,6.84364136 35.9992266,7.51830396 35.9992266,8.34960229 L35.9992266,15.8758086 L35.9991562,15.8758086 Z" id="Shape" fill="#A0D468"></path>
                            <polygon id="Rectangle-path" fill="#F3643A" points="14.2498125 6.84342969 21.75075 6.84342969 21.75075 17.3789473 14.2498125 17.3789473"></polygon>
                            <polygon id="Shape" fill="#79A83D" points="2.25 18.8688213 33.7492969 21.7428049 33.7492969 17.4279841 2.25 17.4279841"></polygon>
                            <polygon id="Rectangle-path" fill="#DA4C44" points="14.2498125 17.3795823 21.75075 17.3795823 21.75075 33.9371091 14.2498125 33.9371091"></polygon>
                            <polygon id="Shape" fill="#C63046" points="14.2495312 19.9635076 21.7503281 20.6481187 21.7503281 17.4279841 14.2495312 17.4279841"></polygon>
                        </g>
                    </g>
                </g>
            </g>
        </g>
    </g>
</svg>