<?xml version="1.0" encoding="UTF-8"?>
<svg width="186px" height="129px" viewBox="0 0 186 129" version="1.1" xmlns="http://www.w3.org/2000/svg" xmlns:xlink="http://www.w3.org/1999/xlink">
    <!-- Generator: Sketch 53.2 (72643) - https://sketchapp.com -->
    <title>illustration/Rockets</title>
    <desc>Created with Sketch.</desc>
    <g id="Tokocrypto" stroke="none" stroke-width="1" fill="none" fill-rule="evenodd">
        <g id="4.5-Market" transform="translate(-92.000000, -166.000000)">
            <g id="illustration/Rockets" transform="translate(92.000000, 166.000000)">
                <path d="M47,84.1046138 L47,83.8950798 C47,81.4998364 48.9443599,79.5579707 51.3430582,79.5579707 L116.245963,79.5579707 C118.644661,79.5579707 120.589328,77.6161049 120.589328,75.2208615 C120.589328,72.8256181 118.644661,70.8837523 116.245963,70.8837523 L115.388825,70.8837523 C112.990126,70.8837523 111.04546,68.942193 111.04546,66.5469495 L111.04546,66.3371092 C111.04546,63.9418657 112.990126,62 115.388825,62 L164.834406,62 C167.232797,62 169.177464,63.9418657 169.177464,66.3371092 L169.177464,66.5469495 C169.177464,68.942193 167.232797,70.8837523 164.834406,70.8837523 L147.946269,70.8837523 C145.547571,70.8837523 143.602904,72.8256181 143.602904,75.2208615 C143.602904,77.6161049 145.547571,79.5579707 147.946269,79.5579707 L148.868137,79.5579707 C151.266529,79.5579707 153.211196,81.4998364 153.211196,83.8950798 L153.211196,84.1046138 C153.211196,86.4998573 151.266529,88.441723 148.868137,88.441723 L130.770681,88.441723 C128.371983,88.441723 126.427316,90.3835887 126.427316,92.7788322 C126.427316,95.1743819 128.371983,97.1162477 130.770681,97.1162477 L172.656942,97.1162477 C175.055333,97.1162477 177,99.057807 177,101.45305 L177,101.662585 C177,104.058134 175.055333,106 172.656942,106 L69.515982,106 C67.1169769,106 65.172617,104.058134 65.172617,101.662585 L65.172617,101.45305 C65.172617,99.057807 67.1169769,97.1162477 69.515982,97.1162477 L72.2699294,97.1162477 C74.6686277,97.1162477 76.6132943,95.1743819 76.6132943,92.7788322 C76.6132943,90.3835887 74.6686277,88.441723 72.2699294,88.441723 L51.3430582,88.441723 C48.9443599,88.441723 47,86.4998573 47,84.1046138 Z" id="Fill-1" fill="#E2E2E2"></path>
                <path d="M56,84.1046138 L56,83.8950798 C56,81.4998364 57.9443599,79.5579707 60.3430582,79.5579707 L125.245963,79.5579707 C127.644661,79.5579707 129.589328,77.6161049 129.589328,75.2208615 C129.589328,72.8256181 127.644661,70.8837523 125.245963,70.8837523 L124.388825,70.8837523 C121.990126,70.8837523 120.04546,68.942193 120.04546,66.5469495 L120.04546,66.3371092 C120.04546,63.9418657 121.990126,62 124.388825,62 L173.834406,62 C176.232797,62 178.177464,63.9418657 178.177464,66.3371092 L178.177464,66.5469495 C178.177464,68.942193 176.232797,70.8837523 173.834406,70.8837523 L156.946269,70.8837523 C154.547571,70.8837523 152.602904,72.8256181 152.602904,75.2208615 C152.602904,77.6161049 154.547571,79.5579707 156.946269,79.5579707 L157.868137,79.5579707 C160.266529,79.5579707 162.211196,81.4998364 162.211196,83.8950798 L162.211196,84.1046138 C162.211196,86.4998573 160.266529,88.441723 157.868137,88.441723 L139.770681,88.441723 C137.371983,88.441723 135.427316,90.3835887 135.427316,92.7788322 C135.427316,95.1743819 137.371983,97.1162477 139.770681,97.1162477 L181.656942,97.1162477 C184.055333,97.1162477 186,99.057807 186,101.45305 L186,101.662585 C186,104.058134 184.055333,106 181.656942,106 L78.515982,106 C76.1169769,106 74.172617,104.058134 74.172617,101.662585 L74.172617,101.45305 C74.172617,99.057807 76.1169769,97.1162477 78.515982,97.1162477 L81.2699294,97.1162477 C83.6686277,97.1162477 85.6132943,95.1743819 85.6132943,92.7788322 C85.6132943,90.3835887 83.6686277,88.441723 81.2699294,88.441723 L60.3430582,88.441723 C57.9443599,88.441723 56,86.4998573 56,84.1046138 Z" id="Fill-1" fill="#EBEBEB"></path>
                <path d="M140,24.6165018 L140,24.3831571 C140,21.7157269 137.906074,19.5531946 135.32286,19.5531946 L65.4274246,19.5531946 C62.844211,19.5531946 60.7499546,17.3906623 60.7499546,14.7232321 C60.7499546,12.0558019 62.844211,9.89326965 65.4274246,9.89326965 L66.3504964,9.89326965 C68.93371,9.89326965 71.0279664,7.73107851 71.0279664,5.06364833 L71.0279664,4.82996247 C71.0279664,2.16253229 68.93371,0 66.3504964,0 L13.1014091,0 C10.5185259,0 8.42426946,2.16253229 8.42426946,4.82996247 L8.42426946,5.06364833 C8.42426946,7.73107851 10.5185259,9.89326965 13.1014091,9.89326965 L31.2886334,9.89326965 C33.871847,9.89326965 35.9661034,12.0558019 35.9661034,14.7232321 C35.9661034,17.3906623 33.871847,19.5531946 31.2886334,19.5531946 L30.2958521,19.5531946 C27.7129689,19.5531946 25.6187125,21.7157269 25.6187125,24.3831571 L25.6187125,24.6165018 C25.6187125,27.283932 27.7129689,29.4464643 30.2958521,29.4464643 L49.7854205,29.4464643 C52.3686341,29.4464643 54.4628905,31.6089965 54.4628905,34.2764267 C54.4628905,36.9441981 52.3686341,39.1067303 49.7854205,39.1067303 L4.6771396,39.1067303 C2.09425641,39.1067303 0,41.2689215 0,43.9363517 L0,44.1696964 C0,46.8374677 2.09425641,49 4.6771396,49 L115.752019,49 C118.335563,49 120.429489,46.8374677 120.429489,44.1696964 L120.429489,43.9363517 C120.429489,41.2689215 118.335563,39.1067303 115.752019,39.1067303 L112.78623,39.1067303 C110.203016,39.1067303 108.10876,36.9441981 108.10876,34.2764267 C108.10876,31.6089965 110.203016,29.4464643 112.78623,29.4464643 L135.32286,29.4464643 C137.906074,29.4464643 140,27.283932 140,24.6165018" id="Fill-1" fill="#E2E2E2"></path>
                <path d="M149,24.3831571 C149,21.7157269 146.906074,19.5531946 144.32286,19.5531946 L74.4274246,19.5531946 C71.844211,19.5531946 69.7499546,17.3906623 69.7499546,14.7232321 C69.7499546,12.0558019 71.844211,9.89326965 74.4274246,9.89326965 L75.3504964,9.89326965 C77.93371,9.89326965 80.0279664,7.73107851 80.0279664,5.06364833 L80.0279664,4.82996247 C80.0279664,2.16253229 77.93371,0 75.3504964,0 L22.1014091,0 C19.5185259,0 17.4242695,2.16253229 17.4242695,4.82996247 L17.4242695,5.06364833 C17.4242695,7.73107851 19.5185259,9.89326965 22.1014091,9.89326965 L40.2886334,9.89326965 C42.871847,9.89326965 44.9661034,12.0558019 44.9661034,14.7232321 C44.9661034,17.3906623 42.871847,19.5531946 40.2886334,19.5531946 L39.2958521,19.5531946 C36.7129689,19.5531946 34.6187125,21.7157269 34.6187125,24.3831571 L34.6187125,24.6165018 C34.6187125,27.283932 36.7129689,29.4464643 39.2958521,29.4464643 L58.7854205,29.4464643 C61.3686341,29.4464643 63.4628905,31.6089965 63.4628905,34.2764267 C63.4628905,36.9441981 61.3686341,39.1067303 58.7854205,39.1067303 L13.6771396,39.1067303 C11.0942564,39.1067303 9,41.2689215 9,43.9363517 L9,44.1696964 C9,46.8374677 11.0942564,49 13.6771396,49 L124.752019,49 C127.335563,49 129.429489,46.8374677 129.429489,44.1696964 L129.429489,43.9363517 C129.429489,41.2689215 127.335563,39.1067303 124.752019,39.1067303 L121.78623,39.1067303 C119.203016,39.1067303 117.10876,36.9441981 117.10876,34.2764267 C117.10876,31.6089965 119.203016,29.4464643 121.78623,29.4464643 L144.32286,29.4464643 C146.906074,29.4464643 149,27.283932 149,24.6165018 L149,24.3831571 Z" id="Fill-1" fill="#EBEBEB"></path>
                <g id="Rockets" transform="translate(28.000000, 13.000000)" fill-rule="nonzero">
                    <polygon id="Shape" fill="#F49600" points="78 84 42 84 46 24 74 24"></polygon>
                    <g id="Group" transform="translate(0.000000, 8.000000)" fill="#E9D800">
                        <path d="M10,20 C8.8954305,20 8,19.1045695 8,18 C8,14.6862915 5.3137085,12 2,12 C0.8954305,12 0,11.1045695 0,10 C0,8.8954305 0.8954305,8 2,8 C5.3137085,8 8,5.3137085 8,2 C8,0.8954305 8.8954305,0 10,0 C11.1045695,0 12,0.8954305 12,2 C12,5.3137085 14.6862915,8 18,8 C19.1045695,8 20,8.8954305 20,10 C20,11.1045695 19.1045695,12 18,12 C14.6862915,12 12,14.6862915 12,18 C12,19.1045695 11.1045695,20 10,20 Z M8,10 C8.75729835,10.5694163 9.4305837,11.2427017 10,12 C10.5694163,11.2427017 11.2427017,10.5694163 12,10 C11.2427017,9.4305837 10.5694163,8.75729835 10,8 C9.4305837,8.75729835 8.75729835,9.4305837 8,10 L8,10 Z" id="Shape"></path>
                        <path d="M110,100 C108.895431,100 108,99.1045695 108,98 C108,94.6862915 105.313708,92 102,92 C100.895431,92 100,91.1045695 100,90 C100,88.8954305 100.895431,88 102,88 C105.313708,88 108,85.3137085 108,82 C108,80.8954305 108.895431,80 110,80 C111.104569,80 112,80.8954305 112,82 C112,85.3137085 114.686292,88 118,88 C119.104569,88 120,88.8954305 120,90 C120,91.1045695 119.104569,92 118,92 C114.686292,92 112,94.6862915 112,98 C112,99.1045695 111.104569,100 110,100 L110,100 Z M108,90 C108.757298,90.5694163 109.430584,91.2427017 110,92 C110.569416,91.2427017 111.242702,90.5694163 112,90 C111.242702,89.4305837 110.569416,88.7572983 110,88 C109.430584,88.7572983 108.757298,89.4305837 108,90 L108,90 Z" id="Shape"></path>
                    </g>
                    <polygon id="Shape" fill="#E9D800" points="12 98 16 98 16 102 12 102"></polygon>
                    <polygon id="Shape" fill="#E9D800" points="20 102 24 102 24 106 20 106"></polygon>
                    <polygon id="Shape" fill="#E9D800" points="96 10 100 10 100 14 96 14"></polygon>
                    <polygon id="Shape" fill="#E9D800" points="104 14 108 14 108 18 104 18"></polygon>
                    <polygon id="Shape" fill="#C67900" points="74 24 46 24 60 0"></polygon>
                    <circle id="Oval" fill="#F7F7F7" cx="60" cy="40" r="8"></circle>
                    <polygon id="Shape" fill="#C67900" points="56 64 64 64 64 84 56 84"></polygon>
                    <polygon id="Shape" fill="#C67900" points="54 84 66 84 66 92 54 92"></polygon>
                    <polygon id="Shape" fill="#FCF05A" points="60 92 52 100 60 116 68 100"></polygon>
                    <polygon id="Shape" fill="#C67900" points="32 74 30 84 42 84 43.2 66"></polygon>
                    <polygon id="Shape" fill="#C67900" points="88 74 76.8 66 78 84 90 84"></polygon>
                </g>
            </g>
        </g>
    </g>
</svg>