<?xml version="1.0" encoding="UTF-8"?>
<svg width="24px" height="24px" viewBox="0 0 24 24" version="1.1" xmlns="http://www.w3.org/2000/svg" xmlns:xlink="http://www.w3.org/1999/xlink">
    <!-- Generator: Sketch 53 (72520) - https://sketchapp.com -->
    <title>icons/system/wallet</title>
    <desc>Created with Sketch.</desc>
    <defs>
        <path d="M18.1113047,12.0410714 C16.7543457,12.0410714 15.6503706,13.1450464 15.6503706,14.5020054 C15.6503706,15.8589645 16.7543457,16.9629395 18.1113047,16.9629395 L21.5976279,16.9629395 C21.6115322,16.9629395 21.6251083,16.9615449 21.6388485,16.9608477 C21.6524657,16.9615039 21.6658778,16.9628984 21.679659,16.9628984 C22.132717,16.9628984 22.4999704,16.5956451 22.4999704,16.1425871 L22.4999704,9.70314306 C22.4999704,8.61106258 21.9631996,7.64247996 21.1400992,7.04574447 L18.3494,2.46758687 C18.2356229,2.28088401 18.0519962,2.14733732 17.8392894,2.09664208 C17.6265827,2.04586481 17.4024736,2.08216359 17.2166321,2.19741733 L15.158594,3.47365772 L14.2304937,1.90300759 C14.1188904,1.71417192 13.9363711,1.57791821 13.7236234,1.52459797 C13.5109166,1.47127773 13.2856181,1.5054437 13.098218,1.61930291 L5.19587174,6.4218977 L3.96093403,6.4218977 C3.51546395,6.4218977 3.15177892,6.06498023 3.14086878,5.62209414 C3.15177892,5.17920804 3.51546395,4.82229058 3.96093403,4.82229058 L5.47851001,4.82229058 C5.93156796,4.82229058 6.29882135,4.45503719 6.29882135,4.00197924 C6.29882135,3.54892128 5.93156796,3.1816679 5.47851001,3.1816679 L3.96093403,3.1816679 C2.80027551,3.1816679 1.82480228,3.98942847 1.56685537,5.07228046 C1.52395309,5.17178423 1.5,5.28129579 1.5,5.39650852 L1.5,5.60158635 L1.5,5.64260192 L1.5,19.2187546 C1.5,21.0280333 2.97196667,22.5 4.78124537,22.5 L19.218725,22.5 C20.6333519,22.5 21.8844497,21.598847 22.3318475,20.2576379 C22.475238,19.8278768 22.2430488,19.3632525 21.8132877,19.2199031 C21.3835676,19.0765537 20.9189023,19.3087018 20.7755529,19.7384629 C20.551895,20.4089033 19.9262845,20.8593773 19.218725,20.8593773 L4.78124537,20.8593773 C3.87660602,20.8593773 3.14062268,20.123394 3.14062268,19.2187546 L3.14062268,7.92179597 C3.39733912,8.01285053 3.6734149,8.06252038 3.96093403,8.06252038 L19.218725,8.06252038 C20.1233643,8.06252038 20.8593477,8.79850372 20.8593477,9.70314306 L20.8593477,12.0410714 L18.1113047,12.0410714 Z M20.8593477,15.3222758 L18.1113047,15.3222758 C17.658985,15.3223168 17.2909933,14.9543251 17.2909933,14.5019644 C17.2909933,14.0496447 17.658985,13.6816531 18.1113047,13.6816531 L20.8593477,13.6816531 L20.8593477,15.3222758 Z M8.3548497,6.42193871 L13.240583,3.45269876 L14.1140916,4.93094082 C14.1308669,4.97134115 14.1501443,5.01116727 14.1739333,5.04955784 C14.1917751,5.07830975 14.2115446,5.10509292 14.2321754,5.13085069 L14.9950649,6.42193871 L8.3548497,6.42193871 Z M16.9007302,6.4218977 L15.9934249,4.88643893 L17.3787666,4.02736787 L18.8384286,6.4218977 L16.9007302,6.4218977 Z" id="path-1"></path>
    </defs>
    <g id="icons/system/wallet" stroke="none" stroke-width="1" fill="none" fill-rule="evenodd">
        <g id="wallet">
            <rect id="Rectangle" x="0" y="0" width="24" height="24"></rect>
            <mask id="mask-2" fill="white">
                <use xlink:href="#path-1"></use>
            </mask>
            <use id="Shape" fill="#000000" fill-rule="nonzero" xlink:href="#path-1"></use>
            <g id="swatches/global/gray-3" mask="url(#mask-2)" fill="#666666">
                <rect id="Rectangle" x="0" y="0" width="24" height="24"></rect>
            </g>
        </g>
    </g>
</svg>