<?xml version="1.0" encoding="UTF-8"?>
<svg width="16px" height="16px" viewBox="0 0 16 16" version="1.1" xmlns="http://www.w3.org/2000/svg" xmlns:xlink="http://www.w3.org/1999/xlink">
    <!-- Generator: Sketch 52.6 (67491) - http://www.bohemiancoding.com/sketch -->
    <title>md-add-circle-outline</title>
    <desc>Created with Sketch.</desc>
    <g id="NewProfile-+-Dash" stroke="none" stroke-width="1" fill="none" fill-rule="evenodd">
        <g id="1.0-DashMobile-NEW" transform="translate(-220.000000, -234.000000)" fill="#007EA5" fill-rule="nonzero">
            <g id="btn-withdraw" transform="translate(189.000000, 223.000000)">
                <g id="md-add-circle-outline" transform="translate(31.000000, 11.000000)">
                    <polygon id="Shape" points="12.1153846 8.80769231 8.80769231 8.80769231 8.80769231 12.1153846 7.19230769 12.1153846 7.19230769 8.80769231 3.88461538 8.80769231 3.88461538 7.19230769 7.19230769 7.19230769 7.19230769 3.88461538 8.80769231 3.88461538 8.80769231 7.19230769 12.1153846 7.19230769"></polygon>
                    <path d="M8,1.61538462 C9.70384615,1.61538462 11.3076923,2.28076923 12.5153846,3.48461538 C13.7192308,4.69230769 14.3846154,6.29615385 14.3846154,8 C14.3846154,9.70384615 13.7192308,11.3076923 12.5153846,12.5153846 C11.3076923,13.7192308 9.70384615,14.3846154 8,14.3846154 C6.29615385,14.3846154 4.69230769,13.7192308 3.48461538,12.5153846 C2.28076923,11.3076923 1.61538462,9.70384615 1.61538462,8 C1.61538462,6.29615385 2.28076923,4.69230769 3.48461538,3.48461538 C4.69230769,2.28076923 6.29615385,1.61538462 8,1.61538462 Z M8,0 C3.58076923,0 0,3.58076923 0,8 C0,12.4192308 3.58076923,16 8,16 C12.4192308,16 16,12.4192308 16,8 C16,3.58076923 12.4192308,0 8,0 Z" id="Shape"></path>
                </g>
            </g>
        </g>
    </g>
</svg>