<?xml version="1.0" encoding="UTF-8"?>
<svg width="24px" height="24px" viewBox="0 0 24 24" version="1.1" xmlns="http://www.w3.org/2000/svg" xmlns:xlink="http://www.w3.org/1999/xlink">
    <!-- Generator: Sketch 52.6 (67491) - http://www.bohemiancoding.com/sketch -->
    <title>icons/navbar/6_votingbox</title>
    <desc>Created with Sketch.</desc>
    <defs>
        <path d="M22.3763393,7.68348214 C22.2879464,7.68348214 22.2044643,7.69821429 22.1258929,7.73258929 L13.4044643,12.2553571 L13.3995536,12.2553571 C13.0263393,12.4861607 12.7857143,12.8691964 12.7857143,13.30625 L12.7857143,22.4352679 C12.7857143,22.7495536 13.0607143,23 13.409375,23 C13.5174107,23 13.6205357,22.9754464 13.7089286,22.93125 C13.71875,22.9263393 13.7285714,22.9214286 13.7334821,22.9165179 L22.3125,18.3642857 L22.3272321,18.359375 C22.7299107,18.1383929 23,17.7357143 23,17.2741071 L23,8.24821429 C23,7.93392857 22.7200893,7.68348214 22.3763393,7.68348214 Z M21.7379464,5.24776786 L12.8151786,1.23571429 C12.8151786,1.23571429 12.2897321,1 12,1 C11.7102679,1 11.1897321,1.23571429 11.1897321,1.23571429 L2.25714286,5.24776786 C2.25714286,5.24776786 1.86428571,5.40982143 1.86428571,5.71428571 C1.86428571,6.03839286 2.271875,6.27901786 2.271875,6.27901786 L11.38125,11.0816964 C11.5678571,11.1651786 11.7790179,11.209375 12,11.209375 C12.2258929,11.209375 12.4370536,11.1602679 12.6236607,11.0767857 L21.728125,6.26919643 C21.728125,6.26919643 22.0964286,6.07276786 22.0964286,5.70446429 C22.1013393,5.39508929 21.7379464,5.24776786 21.7379464,5.24776786 Z M10.6004464,12.2553571 L1.87410714,7.72767857 C1.80044643,7.69821429 1.71205357,7.67857143 1.62366071,7.67857143 C1.27991071,7.67857143 1,7.92901786 1,8.24330357 L1,17.2691964 C1,17.7308036 1.27008929,18.1334821 1.67276786,18.3544643 L1.68258929,18.359375 L10.2616071,22.9116071 C10.3549107,22.965625 10.4678571,22.9950893 10.5857143,22.9950893 C10.9294643,22.9950893 11.209375,22.7397321 11.209375,22.4303571 L11.209375,13.30625 C11.2142857,12.8691964 10.96875,12.48125 10.6004464,12.2553571 Z" id="path-1"></path>
    </defs>
    <g id="icons/navbar/6_votingbox" stroke="none" stroke-width="1" fill="none" fill-rule="evenodd">
        <g id="icons/navbar/5_profile_gray">
            <rect id="Rectangle" x="0" y="0" width="24" height="24"></rect>
            <mask id="mask-2" fill="white">
                <use xlink:href="#path-1"></use>
            </mask>
            <use id="Shape" fill="#000000" fill-rule="nonzero" xlink:href="#path-1"></use>
            <g id="swatches/global/gray-3" mask="url(#mask-2)" fill="#666666">
                <rect id="Rectangle" x="0" y="0" width="24" height="24"></rect>
            </g>
        </g>
    </g>
</svg>