<?xml version="1.0" encoding="UTF-8"?>
<svg width="18px" height="22px" viewBox="0 0 18 22" version="1.1" xmlns="http://www.w3.org/2000/svg" xmlns:xlink="http://www.w3.org/1999/xlink">
    <!-- Generator: Sketch 53.2 (72643) - https://sketchapp.com -->
    <title>md-copy</title>
    <desc>Created with Sketch.</desc>
    <g id="Tokocrypto" stroke="none" stroke-width="1" fill="none" fill-rule="evenodd" fill-opacity="0.87">
        <g id="7.4-ReferralsContent-tab1" transform="translate(-299.000000, -346.000000)" fill="#222222" fill-rule="nonzero">
            <g id="code" transform="translate(30.000000, 333.000000)">
                <g id="md-copy" transform="translate(269.000000, 13.000000)">
                    <path d="M10.8952381,0 L4.63571429,0 C3.47809524,0 2.51428571,0.911428571 2.51428571,2.06904762 L2.51428571,2.51428571 L2.12142857,2.51428571 C0.963809524,2.51428571 0,3.42571429 0,4.58333333 L0,19.6690476 C0,20.8266667 0.963809524,21.7904762 2.12142857,21.7904762 L13.0166667,21.7904762 C14.1742857,21.7904762 15.0857143,20.8266667 15.0857143,19.6690476 L15.0857143,19.2761905 L15.5309524,19.2761905 C16.6885714,19.2761905 17.6,18.312381 17.6,17.1547619 L17.6,6.7047619 L10.8952381,0 Z M10.8952381,2.33619048 L15.2638095,6.7047619 L10.8952381,6.7047619 L10.8952381,2.33619048 Z M13.4095238,19.6690476 C13.4095238,19.9152381 13.2314286,20.1142857 13.0166667,20.1142857 L2.12142857,20.1142857 C1.89095238,20.1142857 1.67619048,19.8995238 1.67619048,19.6690476 L1.67619048,4.58333333 C1.67619048,4.36857143 1.8752381,4.19047619 2.12142857,4.19047619 L2.51428571,4.19047619 L2.51428571,17.5738095 C2.51428571,18.7314286 3.05904762,19.2761905 4.21666667,19.2761905 L13.4095238,19.2761905 L13.4095238,19.6690476 Z M15.9238095,17.1547619 C15.9238095,17.4009524 15.7457143,17.6 15.5309524,17.6 L4.63571429,17.6 C4.4052381,17.6 4.19047619,17.3852381 4.19047619,17.1547619 L4.19047619,2.06904762 C4.19047619,1.85428571 4.38952381,1.67619048 4.63571429,1.67619048 L8.38095238,1.67619048 L9.21904762,1.67619048 L9.21904762,6.7047619 L9.21904762,8.38095238 L10.8952381,8.38095238 L15.9238095,8.38095238 L15.9238095,17.1547619 Z" id="Shape"></path>
                </g>
            </g>
        </g>
    </g>
</svg>