<?xml version="1.0" encoding="UTF-8"?>
<svg width="16px" height="18px" viewBox="0 0 16 18" version="1.1" xmlns="http://www.w3.org/2000/svg" xmlns:xlink="http://www.w3.org/1999/xlink">
    <!-- Generator: Sketch 53.2 (72643) - https://sketchapp.com -->
    <title>md-share</title>
    <desc>Created with Sketch.</desc>
    <g id="Tokocrypto" stroke="none" stroke-width="1" fill="none" fill-rule="evenodd">
        <g id="7.4-ReferralsContent-tab1" transform="translate(-118.000000, -490.000000)" fill="#FFFFFF" fill-rule="nonzero">
            <g id="Group-2" transform="translate(30.000000, 473.000000)">
                <g id="md-share" transform="translate(88.000000, 17.000000)">
                    <path d="M13.3259167,12.5177917 C12.657375,12.5177917 12.03325,12.7397083 11.5875417,13.1835833 L5.21433333,9.49941667 C5.25895833,9.27741667 5.30358333,9.09970833 5.30358333,8.87779167 C5.30358333,8.65579167 5.25895833,8.47808333 5.21433333,8.25616667 L11.49875,4.61658333 C11.9888333,5.06045833 12.6129583,5.326625 13.3259167,5.326625 C14.7965417,5.326625 16,4.12804167 16,2.66329167 C16,1.198625 14.7965417,0 13.3259167,0 C11.8552083,0 10.6517917,1.198625 10.6517917,2.66333333 C10.6517917,2.88529167 10.6961667,3.06304167 10.7410417,3.28495833 L4.45683333,6.92454167 C3.96654167,6.480625 3.342625,6.2145 2.6295,6.2145 C1.15883333,6.2145 2.84217094e-14,7.41308333 2.84217094e-14,8.87783333 C2.84217094e-14,10.3425417 1.20320833,11.5411667 2.67408333,11.5411667 C3.38720833,11.5411667 4.011125,11.2749583 4.50141667,10.8310833 L10.8302083,14.5152917 C10.785375,14.6925833 10.741,14.8703333 10.741,15.09225 C10.741,16.5128333 11.8995833,17.6667083 13.325875,17.6667083 C14.7520833,17.6667083 15.9107083,16.5128333 15.9107083,15.09225 C15.91075,13.6716667 14.7521667,12.5177917 13.3259167,12.5177917 Z" id="Shape"></path>
                </g>
            </g>
        </g>
    </g>
</svg>