<?xml version="1.0" encoding="UTF-8"?>
<svg width="14px" height="14px" viewBox="0 0 14 14" version="1.1" xmlns="http://www.w3.org/2000/svg" xmlns:xlink="http://www.w3.org/1999/xlink">
    <!-- Generator: Sketch 53.2 (72643) - https://sketchapp.com -->
    <title>qr-code</title>
    <desc>Created with Sketch.</desc>
    <g id="Tokocrypto" stroke="none" stroke-width="1" fill="none" fill-rule="evenodd">
        <g id="7.4-ReferralsContent-tab1" transform="translate(-127.000000, -405.000000)" fill="#007EA5" fill-rule="nonzero">
            <g id="button-copy" transform="translate(108.000000, 396.000000)">
                <g id="Group" transform="translate(19.000000, 8.000000)">
                    <g id="qr-code" transform="translate(0.000000, 1.000000)">
                        <path d="M0,13.9996866 L6.36352239,13.9996866 L6.36352239,7.63609453 L0,7.63609453 L0,13.9996866 Z M1.27260697,8.90891045 L5.09077612,8.90891045 L5.09077612,12.7171891 L1.27260697,12.7171891 L1.27260697,8.90891045 Z" id="Shape"></path>
                        <polygon id="Rectangle-path" points="2.54538806 10.1815174 3.81806468 10.1815174 3.81806468 11.4543682 2.54538806 11.4543682"></polygon>
                        <polygon id="Rectangle-path" points="10.1814129 12.7270796 11.454403 12.7270796 11.454403 13.999791 10.1814129 13.999791"></polygon>
                        <polygon id="Rectangle-path" points="12.7268358 12.7270796 13.999791 12.7270796 13.999791 13.999791 12.7268358 13.999791"></polygon>
                        <polygon id="Shape" points="12.7269751 8.90891045 11.4543682 8.90891045 11.4543682 7.63609453 7.63609453 7.63609453 7.63609453 13.9996866 8.90891045 13.9996866 8.90891045 10.1815174 10.1814129 10.1815174 10.1814129 11.4543682 13.9996866 11.4543682 13.9996866 7.63609453 13.9996866 7.63609453 12.7269751 7.63609453"></polygon>
                        <path d="M0,6.36366169 L6.36352239,6.36366169 L6.36352239,0 L0,0 L0,6.36366169 Z M1.27260697,1.27260697 L5.09077612,1.27260697 L5.09077612,5.09077612 L1.27260697,5.09077612 L1.27260697,1.27260697 Z" id="Shape"></path>
                        <rect id="Rectangle-path" x="2.54538806" y="2.54538806" width="1.27267662" height="1.27278109"></rect>
                        <path d="M7.63609453,0 L7.63609453,6.36366169 L13.999791,6.36366169 L13.999791,0 L7.63609453,0 Z M12.7269751,5.09077612 L8.90891045,5.09077612 L8.90891045,1.27260697 L12.7269751,1.27260697 L12.7269751,5.09077612 L12.7269751,5.09077612 Z" id="Shape"></path>
                        <rect id="Rectangle-path" x="10.1814129" y="2.54538806" width="1.27299005" height="1.27278109"></rect>
                    </g>
                </g>
            </g>
        </g>
    </g>
</svg>