<?xml version="1.0" encoding="UTF-8"?>
<svg width="330px" height="100px" viewBox="0 0 330 100" version="1.1" xmlns="http://www.w3.org/2000/svg" xmlns:xlink="http://www.w3.org/1999/xlink">
    <!-- Generator: Sketch 53.2 (72643) - https://sketchapp.com -->
    <title>Referrals-banner</title>
    <desc>Created with Sketch.</desc>
    <defs>
        <linearGradient x1="100%" y1="54.5913682%" x2="2.57857659%" y2="45.6454157%" id="linearGradient-1">
            <stop stop-color="#1AA74A" offset="0%"></stop>
            <stop stop-color="#59D20B" offset="100%"></stop>
        </linearGradient>
        <circle id="path-2" cx="40" cy="40" r="40"></circle>
        <text id="text-4" font-family="Roboto-Bold, Roboto" font-size="14" font-weight="bold" line-spacing="19" fill="#FFFFFF" fill-opacity="0.87">
            <tspan x="122" y="34">Share 10% discount</tspan>
            <tspan x="246.28418" y="34" font-family="Roboto-Regular, Roboto" font-weight="normal"></tspan>
            <tspan x="122" y="53" font-family="Roboto-Regular, Roboto" font-size="12" font-weight="normal">for your friends on first trading,</tspan>
            <tspan x="122" y="72" font-family="Roboto-Regular, Roboto" font-size="12" font-weight="normal">and </tspan>
            <tspan x="144.886719" y="72" font-size="12">you get 30%</tspan>
        </text>
        <filter x="-1.6%" y="-5.3%" width="103.2%" height="110.5%" filterUnits="objectBoundingBox" id="filter-5">
            <feOffset dx="0" dy="0" in="SourceAlpha" result="shadowOffsetOuter1"></feOffset>
            <feGaussianBlur stdDeviation="1" in="shadowOffsetOuter1" result="shadowBlurOuter1"></feGaussianBlur>
            <feColorMatrix values="0 0 0 0 0   0 0 0 0 0   0 0 0 0 0  0 0 0 0.5 0" type="matrix" in="shadowBlurOuter1"></feColorMatrix>
        </filter>
    </defs>
    <g id="Tokocrypto" stroke="none" stroke-width="1" fill="none" fill-rule="evenodd">
        <g id="7.0-UserProfile2" transform="translate(-15.000000, -312.000000)">
            <g id="Referrals" transform="translate(0.000000, 265.000000)">
                <g id="Referrals-banner" transform="translate(15.000000, 47.000000)">
                    <rect id="referrals-banner-background" stroke="#1AA74A" fill="url(#linearGradient-1)" x="0.5" y="0.5" width="329" height="99" rx="8"></rect>
                    <g id="illustration/Referrals" transform="translate(24.000000, 10.000000)">
                        <mask id="mask-3" fill="white">
                            <use xlink:href="#path-2"></use>
                        </mask>
                        <use id="Oval-6" fill="#00F0FF" xlink:href="#path-2"></use>
                        <g id="Background" mask="url(#mask-3)">
                            <g transform="translate(-25.000000, -12.000000)" id="Fill-1">
                                <path d="M0,77.0665724 L0,76.9332326 C0,75.4089868 0.927310098,74.1732541 2.07130468,74.1732541 L33.0249977,74.1732541 C34.1689923,74.1732541 35.0964487,72.9375213 35.0964487,71.4132755 C35.0964487,69.8890297 34.1689923,68.6532969 33.0249977,68.6532969 L32.6162087,68.6532969 C31.4722142,68.6532969 30.5447578,67.4177592 30.5447578,65.8935133 L30.5447578,65.7599786 C30.5447578,64.2357327 31.4722142,63 32.6162087,63 L56.1979474,63 C57.3417957,63 58.2692521,64.2357327 58.2692521,65.7599786 L58.2692521,65.8935133 C58.2692521,67.4177592 57.3417957,68.6532969 56.1979474,68.6532969 L48.1436052,68.6532969 C46.9996106,68.6532969 46.0721542,69.8890297 46.0721542,71.4132755 C46.0721542,72.9375213 46.9996106,74.1732541 48.1436052,74.1732541 L48.5832655,74.1732541 C49.7271138,74.1732541 50.6545702,75.4089868 50.6545702,76.9332326 L50.6545702,77.0665724 C50.6545702,78.5908183 49.7271138,79.826551 48.5832655,79.826551 L39.9521709,79.826551 C38.8081763,79.826551 37.8807199,81.0622837 37.8807199,82.5865296 C37.8807199,84.1109703 38.8081763,85.3467031 39.9521709,85.3467031 L59.9286953,85.3467031 C61.0725436,85.3467031 62,86.5822408 62,88.1064867 L62,88.2398265 C62,89.7642673 61.0725436,91 59.9286953,91 L10.7383914,91 C9.59425051,91 8.66694041,89.7642673 8.66694041,88.2398265 L8.66694041,88.1064867 C8.66694041,86.5822408 9.59425051,85.3467031 10.7383914,85.3467031 L12.0518125,85.3467031 C13.1958071,85.3467031 14.1232635,84.1109703 14.1232635,82.5865296 C14.1232635,81.0622837 13.1958071,79.826551 12.0518125,79.826551 L2.07130468,79.826551 C0.927310098,79.826551 0,78.5908183 0,77.0665724 Z" fill="#1AA74A"></path>
                                <path d="M45,14.0665724 L45,13.9332326 C45,12.4089868 45.9273101,11.1732541 47.0713047,11.1732541 L78.0249977,11.1732541 C79.1689923,11.1732541 80.0964487,9.93752132 80.0964487,8.4132755 C80.0964487,6.88902968 79.1689923,5.65329694 78.0249977,5.65329694 L77.6162087,5.65329694 C76.4722142,5.65329694 75.5447578,4.41775915 75.5447578,2.89351333 L75.5447578,2.75997856 C75.5447578,1.23573274 76.4722142,0 77.6162087,0 L101.197947,0 C102.341796,0 103.269252,1.23573274 103.269252,2.75997856 L103.269252,2.89351333 C103.269252,4.41775915 102.341796,5.65329694 101.197947,5.65329694 L93.1436052,5.65329694 C91.9996106,5.65329694 91.0721542,6.88902968 91.0721542,8.4132755 C91.0721542,9.93752132 91.9996106,11.1732541 93.1436052,11.1732541 L93.5832655,11.1732541 C94.7271138,11.1732541 95.6545702,12.4089868 95.6545702,13.9332326 L95.6545702,14.0665724 C95.6545702,15.5908183 94.7271138,16.826551 93.5832655,16.826551 L84.9521709,16.826551 C83.8081763,16.826551 82.8807199,18.0622837 82.8807199,19.5865296 C82.8807199,21.1109703 83.8081763,22.3467031 84.9521709,22.3467031 L104.928695,22.3467031 C106.072544,22.3467031 107,23.5822408 107,25.1064867 L107,25.2398265 C107,26.7642673 106.072544,28 104.928695,28 L55.7383914,28 C54.5942505,28 53.6669404,26.7642673 53.6669404,25.2398265 L53.6669404,25.1064867 C53.6669404,23.5822408 54.5942505,22.3467031 55.7383914,22.3467031 L57.0518125,22.3467031 C58.1958071,22.3467031 59.1232635,21.1109703 59.1232635,19.5865296 C59.1232635,18.0622837 58.1958071,16.826551 57.0518125,16.826551 L47.0713047,16.826551 C45.9273101,16.826551 45,15.5908183 45,14.0665724 Z" fill="#1AA74A"></path>
                                <path d="M80.9172281,20.9174588 L80.0827719,20.9174588 L80.0827719,20.0829022 C80.0827719,19.4851402 79.5984119,19 79,19 C78.4023099,19 77.9172281,19.4851402 77.9172281,20.0829022 L77.9172281,20.9174588 L77.0827719,20.9174588 C76.4850818,20.9174588 76,21.401877 76,22.000361 C76,22.5988449 76.4850818,23.0832631 77.0827719,23.0832631 L77.9172281,23.0832631 L77.9172281,23.9170978 C77.9172281,24.5155818 78.4023099,25 79,25 C79.5984119,25 80.0827719,24.5155818 80.0827719,23.9170978 L80.0827719,23.0832631 L80.9172281,23.0832631 C81.51564,23.0832631 82,22.5988449 82,22.000361 C82,21.401877 81.51564,20.9174588 80.9172281,20.9174588" fill="#FFFFFF"></path>
                                <path d="M93.9172281,30.9174588 L93.0827719,30.9174588 L93.0827719,30.0829022 C93.0827719,29.4851402 92.5984119,29 92,29 C91.4023099,29 90.9172281,29.4851402 90.9172281,30.0829022 L90.9172281,30.9174588 L90.0827719,30.9174588 C89.4850818,30.9174588 89,31.401877 89,32.000361 C89,32.5988449 89.4850818,33.0832631 90.0827719,33.0832631 L90.9172281,33.0832631 L90.9172281,33.9170978 C90.9172281,34.5155818 91.4023099,35 92,35 C92.5984119,35 93.0827719,34.5155818 93.0827719,33.9170978 L93.0827719,33.0832631 L93.9172281,33.0832631 C94.51564,33.0832631 95,32.5988449 95,32.000361 C95,31.401877 94.51564,30.9174588 93.9172281,30.9174588" fill="#FFFFFF"></path>
                                <path d="M99.9172281,44.9174588 L99.0827719,44.9174588 L99.0827719,44.0829022 C99.0827719,43.4851402 98.5984119,43 98,43 C97.4023099,43 96.9172281,43.4851402 96.9172281,44.0829022 L96.9172281,44.9174588 L96.0827719,44.9174588 C95.4850818,44.9174588 95,45.401877 95,46.000361 C95,46.5988449 95.4850818,47.0832631 96.0827719,47.0832631 L96.9172281,47.0832631 L96.9172281,47.9170978 C96.9172281,48.5155818 97.4023099,49 98,49 C98.5984119,49 99.0827719,48.5155818 99.0827719,47.9170978 L99.0827719,47.0832631 L99.9172281,47.0832631 C100.51564,47.0832631 101,46.5988449 101,46.000361 C101,45.401877 100.51564,44.9174588 99.9172281,44.9174588" fill="#FFFFFF"></path>
                                <path d="M37.9172281,65.9174588 L37.0827719,65.9174588 L37.0827719,65.0829022 C37.0827719,64.4851402 36.5984119,64 36,64 C35.4023099,64 34.9172281,64.4851402 34.9172281,65.0829022 L34.9172281,65.9174588 L34.0827719,65.9174588 C33.4850818,65.9174588 33,66.401877 33,67.000361 C33,67.5988449 33.4850818,68.0832631 34.0827719,68.0832631 L34.9172281,68.0832631 L34.9172281,68.9170978 C34.9172281,69.5155818 35.4023099,70 36,70 C36.5984119,70 37.0827719,69.5155818 37.0827719,68.9170978 L37.0827719,68.0832631 L37.9172281,68.0832631 C38.51564,68.0832631 39,67.5988449 39,67.000361 C39,66.401877 38.51564,65.9174588 37.9172281,65.9174588" fill="#FFFFFF"></path>
                                <path d="M40.9172281,41.9174588 L40.0827719,41.9174588 L40.0827719,41.0829022 C40.0827719,40.4851402 39.5984119,40 39,40 C38.4023099,40 37.9172281,40.4851402 37.9172281,41.0829022 L37.9172281,41.9174588 L37.0827719,41.9174588 C36.4850818,41.9174588 36,42.401877 36,43.000361 C36,43.5988449 36.4850818,44.0832631 37.0827719,44.0832631 L37.9172281,44.0832631 L37.9172281,44.9170978 C37.9172281,45.5155818 38.4023099,46 39,46 C39.5984119,46 40.0827719,45.5155818 40.0827719,44.9170978 L40.0827719,44.0832631 L40.9172281,44.0832631 C41.51564,44.0832631 42,43.5988449 42,43.000361 C42,42.401877 41.51564,41.9174588 40.9172281,41.9174588" fill="#FFFFFF"></path>
                                <path d="M34.9172281,34.9174588 L34.0827719,34.9174588 L34.0827719,34.0829022 C34.0827719,33.4851402 33.5984119,33 33,33 C32.4023099,33 31.9172281,33.4851402 31.9172281,34.0829022 L31.9172281,34.9174588 L31.0827719,34.9174588 C30.4850818,34.9174588 30,35.401877 30,36.000361 C30,36.5988449 30.4850818,37.0832631 31.0827719,37.0832631 L31.9172281,37.0832631 L31.9172281,37.9170978 C31.9172281,38.5155818 32.4023099,39 33,39 C33.5984119,39 34.0827719,38.5155818 34.0827719,37.9170978 L34.0827719,37.0832631 L34.9172281,37.0832631 C35.51564,37.0832631 36,36.5988449 36,36.000361 C36,35.401877 35.51564,34.9174588 34.9172281,34.9174588" fill="#FFFFFF"></path>
                            </g>
                        </g>
                        <g id="gift-(1)" mask="url(#mask-3)" fill-rule="nonzero">
                            <g transform="translate(15.000000, 14.000000)">
                                <path d="M39.2704013,4.36189286 C37.7392675,1.46709355 35.9053207,0 33.8188624,0 C31.4171411,0 28.9228489,1.98421053 26.402653,5.9003514 C26.0802615,6.40163205 25.7782516,6.90281118 25.4998363,7.38663127 C25.221421,6.90281118 24.9194111,6.40163205 24.5963168,5.9003514 C22.0776269,1.98421053 19.5825316,7.21306853e-16 17.1808102,7.21306853e-16 C15.0944523,7.21306853e-16 13.2597023,1.46709355 11.7293718,4.36189286 C10.5850877,6.52852569 10.9976404,8.08454631 11.5451337,9.00772294 C12.5317862,10.6715524 14.7375224,11.7929877 18.288347,12.4337498 C21.0147691,12.9270108 23.8998267,13 25.3767432,13 L25.3775464,13 C25.4191129,13 25.4598762,13 25.4999367,13 C25.5407,13 25.5814633,13 25.6231302,13 C27.1001472,13 29.9851043,12.9270108 32.7116268,12.4337498 C36.2616482,11.7929877 38.4673844,10.6715524 39.4557437,9.00772294 C40.0014298,8.08454631 40.4155889,6.52852569 39.2704013,4.36189286 Z" id="Shape" fill="#FF1414"></path>
                                <path d="M47.9998996,21.0950387 C47.9998996,19.937797 47.0394115,19 45.8559279,19 L5.14306761,19 C3.95968446,19 3,19.937797 3,21.0950387 L3,45.9050595 C3,47.0623012 3.95968446,48 5.14306761,48 L45.8560284,48 C47.0394115,48 48,47.0623012 48,45.9050595 L48,21.0950387 L47.9998996,21.0950387 Z" id="Shape" fill="#8CC153"></path>
                                <path d="M50.9999004,22.8577886 C50.9999004,24.0410872 50.0474151,25 48.8738918,25 L2.12531129,25 C0.951788027,24.9998996 0,24.0409867 0,22.8576881 L0,12.1438185 C0,10.9605199 0.951788027,10 2.12531129,10 L48.8739914,10 C50.0475147,10 51,10.9604194 51,12.1438185 L51,22.8577886 L50.9999004,22.8577886 Z" id="Shape" fill="#A0D468"></path>
                                <rect id="Rectangle-path" fill="#F3643A" x="20" y="10" width="11" height="15"></rect>
                                <polygon id="Shape" fill="#79A83D" points="3 27.0035648 48 31 48 25 3 25"></polygon>
                                <rect id="Rectangle-path" fill="#DA4C44" x="20" y="25" width="11" height="23"></rect>
                                <polygon id="Shape" fill="#C63046" points="20 28.9369837 31 30 31 25 20 25"></polygon>
                            </g>
                        </g>
                    </g>
                    <g id="Share-10%-discount-f" fill="#FFFFFF" fill-opacity="0.87">
                        <use filter="url(#filter-5)" xlink:href="#text-4"></use>
                        <use xlink:href="#text-4"></use>
                    </g>
                </g>
            </g>
        </g>
    </g>
</svg>