<?xml version="1.0" encoding="UTF-8"?>
<svg width="24px" height="24px" viewBox="0 0 24 24" version="1.1" xmlns="http://www.w3.org/2000/svg" xmlns:xlink="http://www.w3.org/1999/xlink">
    <!-- Generator: Sketch 53 (72520) - https://sketchapp.com -->
    <title>icons/navbar/7_launchpad</title>
    <desc>Created with Sketch.</desc>
    <defs>
        <path d="M11.59546,19.59 C10.7658767,19.59 10.0737933,19.2783333 9.62921001,19.0904167 C9.38171001,18.985 9.11129335,19.1729167 9.12962668,19.43875 L9.29004335,21.77625 C9.29921001,21.9183333 9.46421001,21.9916667 9.57879335,21.9045833 L10.2433767,21.4004167 C10.3258767,21.33625 10.4496267,21.3591667 10.5046267,21.44625 L11.44421,22.9175 C11.51296,23.0275 11.67796,23.0275 11.74671,22.9175 L12.6862933,21.44625 C12.7412933,21.3591667 12.8650433,21.33625 12.9475433,21.4004167 L13.6121267,21.9045833 C13.72671,21.9916667 13.89171,21.9183333 13.9008767,21.77625 L14.0612933,19.43875 C14.0796267,19.1729167 13.80921,18.9804167 13.56171,19.0904167 C13.1125433,19.2783333 12.4250433,19.59 11.59546,19.59 L11.59546,19.59 Z M18.0900433,13.7004167 L15.8900433,11.45 C15.8900433,4.20833333 11.6183767,1 11.6183767,1 C11.6183767,1 7.30546001,4.20833333 7.30546001,11.45 L5.10546001,13.7004167 C5.02296001,13.7829167 4.98629335,13.9066667 5.00462668,14.0258333 L5.84796001,19.15 C5.88921001,19.41125 6.17337668,19.5395833 6.38879335,19.3975 L9.46421001,17.3166667 C9.46421001,17.3166667 10.41296,18.2333333 11.62296,18.2333333 C12.83296,18.2333333 13.7358767,17.3166667 13.7358767,17.3166667 L16.8112933,19.3975 C17.0221267,19.5395833 17.3062933,19.41125 17.3521267,19.15 L18.2000433,14.02125 C18.20921,13.9020833 18.1725433,13.7829167 18.0900433,13.7004167 L18.0900433,13.7004167 Z M11.6183767,9.06666667 C10.83921,9.06666667 10.2112933,8.41125 10.2112933,7.6 C10.2112933,6.78875 10.8437933,6.13333333 11.6183767,6.13333333 C12.3975433,6.13333333 13.02546,6.78875 13.02546,7.6 C13.02546,8.41125 12.3975433,9.06666667 11.6183767,9.06666667 Z" id="path-1"></path>
    </defs>
    <g id="icons/navbar/7_launchpad" stroke="none" stroke-width="1" fill="none" fill-rule="evenodd">
        <g id="icons/navbar/5_profile_gray">
            <rect id="Rectangle" x="0" y="0" width="24" height="24"></rect>
            <mask id="mask-2" fill="white">
                <use xlink:href="#path-1"></use>
            </mask>
            <use id="Shape" fill="#000000" fill-rule="nonzero" xlink:href="#path-1"></use>
            <g id="swatches/global/gray-3" mask="url(#mask-2)" fill="#666666">
                <rect id="Rectangle" x="0" y="0" width="24" height="24"></rect>
            </g>
        </g>
    </g>
</svg>